<svg xmlns="http://www.w3.org/2000/svg" enable-background="new 0 0 32 32" viewBox="0 0 32 32"><path d="M31.10741,26.15234L19.3037,2.54395c-0.62988-1.25879-1.89551-2.04102-3.30371-2.04102c-1.40771,0-2.67334,0.78223-3.30322,2.04102h-0.00049L0.89257,26.15234c-0.57666,1.15332-0.51611,2.49609,0.16162,3.59277c0.67822,1.09668,1.85254,1.75195,3.14209,1.75195H27.8037c1.29004,0,2.46484-0.65527,3.14258-1.75195S31.68359,27.30469,31.10741,26.15234z M28.39355,28.16797c-0.0752,0.12305-0.25293,0.3291-0.58984,0.3291H4.19628c-0.33643,0-0.51416-0.20605-0.58984-0.3291c-0.07617-0.12207-0.18066-0.37305-0.03027-0.67383l11.80371-23.6084c0.17285-0.3457,0.49121-0.38281,0.62012-0.38281c0.12891,0,0.44726,0.03711,0.62012,0.38281l11.80371,23.6084C28.57421,27.79492,28.46972,28.0459,28.39355,28.16797z"/><path d="M15.99999 8.95508c-.82861 0-1.5.67188-1.5 1.5v9.53613c0 .82813.67139 1.5 1.5 1.5.82861 0 1.5-.67188 1.5-1.5v-9.53613C17.49999 9.62695 16.82861 8.95508 15.99999 8.95508zM15.99999 22.86621c-.82861 0-1.5.67188-1.5 1.5v1.08887c0 .82813.67139 1.5 1.5 1.5.82861 0 1.5-.67188 1.5-1.5v-1.08887C17.49999 23.53809 16.82861 22.86621 15.99999 22.86621z"/></svg>