<svg xmlns="http://www.w3.org/2000/svg" width="100" height="100" viewBox="0 0 100 100"><path d="M50 12c-21 0-38 17-38 38s17 38 38 38 38-17 38-38-17-38-38-38zm0 72c-18.8 0-34-15.2-34-34s15.2-34 34-34 34 15.2 34 34-15.2 34-34 34zm19.5-34c0 1.1-.9 2-2 2H45.1c-1.1 0-2-.9-2-2s.9-2 2-2h22.4c1.1 0 2 .9 2 2zm0 12c0 1.1-.9 2-2 2H45.1c-1.1 0-2-.9-2-2s.9-2 2-2h22.4c1.1 0 2 .9 2 2zM38.3 50c0 1.1-.9 2-2 2h-3.8c-1.1 0-2-.9-2-2s.9-2 2-2h3.8c1.1 0 2 .9 2 2zm0 12c0 1.1-.9 2-2 2h-3.8c-1.1 0-2-.9-2-2s.9-2 2-2h3.8c1.1 0 2 .9 2 2zm31.2-24c0 1.1-.9 2-2 2H45.1c-1.1 0-2-.9-2-2s.9-2 2-2h22.4c1.1 0 2 .9 2 2zm-31.2 0c0 1.1-.9 2-2 2h-3.8c-1.1 0-2-.9-2-2s.9-2 2-2h3.8c1.1 0 2 .9 2 2z"/><path fill="#00F" d="M244-1210V474h-1784v-1684H244m8-8h-1800V482H252v-1700z"/></svg>