<svg xmlns="http://www.w3.org/2000/svg" viewBox="0 0 64 64"><path d="M55,4H9A5,5,0,0,0,4,9V50a5,5,0,0,0,5,5h8V53H9a3,3,0,0,1-3-3V14H58V50a3,3,0,0,1-3,3H47.19v2H55a5,5,0,0,0,5-5V9A5,5,0,0,0,55,4ZM6,12V9A3,3,0,0,1,9,6H55a3,3,0,0,1,3,3v3Zm4-4h4v2H10Zm6,0h4v2H16Zm6,0h4v2H22ZM41,8H54v2H41ZM55,51H47.13V49H54V18H10V49h7v2H9a1,1,0,0,1-1-1V17a1,1,0,0,1,1-1H55a1,1,0,0,1,1,1V50A1,1,0,0,1,55,51ZM32,34A13,13,0,1,0,45,47,13,13,0,0,0,32,34ZM25.69,56A7,7,0,0,1,38.3,56a10.94,10.94,0,0,1-12.61,0Zm14.19-1.34a9,9,0,0,0-15.76,0,11,11,0,1,1,15.76,0ZM32,38a5,5,0,1,0,5,5A5,5,0,0,0,32,38Zm0,8a3,3,0,1,1,3-3A3,3,0,0,1,32,46ZM22,29V23a1,1,0,0,0-1-1H15a1,1,0,0,0-1,1v6a1,1,0,0,0,1,1h6A1,1,0,0,0,22,29Zm-2-1H16V24h4Zm30-4H26V22H50ZM26,28H50v2H26Z" data-name="56 Account, Admin, Browser, User"/></svg>