<svg xmlns="http://www.w3.org/2000/svg" data-name="Layer 1" viewBox="0 0 64 64"><path d="M49.54 64H2.19a.49.49 0 0 1-.49-.49v-13a13.74 13.74 0 0 1 13.72-13.78h.41a4.63 4.63 0 0 0 2.59-.73 5.58 5.58 0 0 0 2.28-4.58.5.5 0 0 1 .52-.46.49.49 0 0 1 .46.53c-.2 3.06-1.59 4.59-2.72 5.33a5.63 5.63 0 0 1-3.13.88h-.41A12.74 12.74 0 0 0 2.69 50.45V63h46.85a.49.49 0 0 1 .49.49.5.5 0 0 1-.49.51zm-4.62-24.53a.53.53 0 0 1-.24-.06 12.71 12.71 0 0 0-6.35-1.69h-.4a5.67 5.67 0 0 1-3.14-.88 6.54 6.54 0 0 1-2.71-5.34.51.51 0 0 1 .46-.53.52.52 0 0 1 .53.46A5.58 5.58 0 0 0 35.34 36a4.6 4.6 0 0 0 2.59.71h.4a13.73 13.73 0 0 1 6.84 1.82.5.5 0 0 1 .18.68.51.51 0 0 1-.43.26z"/><path d="M26.88 34.19c-7 0-12.23-8.76-12.23-16.6a.5.5 0 0 1 1 0c0 7.37 4.81 15.61 11.24 15.61S38.12 25 38.12 17.59a.49.49 0 0 1 1 0c-.02 7.84-5.25 16.6-12.24 16.6Z"/><path d="M38.61 18.09h-.07a.5.5 0 0 1-.42-.41c-.62-3.84-2-6.63-4.26-8.51-1.41.71-7.46 3.53-12.44 2.17a3.4 3.4 0 0 0-2.93.39c-2.31 1.56-2.85 5.89-2.86 5.93a.49.49 0 0 1-.94.13c-.17-.42-4.06-10.38 2.24-15.15C22.63-1.69 33.2.5 35.26 1a3.09 3.09 0 0 1 2.36 2.23 2.47 2.47 0 0 1-.32 1.94 6.29 6.29 0 0 1 2.79 3c1.09 2.47.74 5.7-1 9.6a.49.49 0 0 1-.48.32zm-4.69-10a.51.51 0 0 1 .31.11 13.21 13.21 0 0 1 4.55 7.71c1.1-2.94 1.24-5.39.42-7.29a5.33 5.33 0 0 0-2.85-2.82.46.46 0 0 1-.35-.37.52.52 0 0 1 .18-.43 1.45 1.45 0 0 0 .48-1.5A2.11 2.11 0 0 0 35 1.94c-2-.46-12.16-2.58-17.51 1.47-4.21 3.19-3.28 9.25-2.48 12.24a8.47 8.47 0 0 1 2.89-4.74 4.37 4.37 0 0 1 3.74-.53c5.17 1.41 11.94-2.2 12-2.24a.46.46 0 0 1 .28-.06zm-7.04 34.68a.43.43 0 0 1-.25-.07l-9.17-5.33a.49.49 0 0 1-.27-.44.48.48 0 0 1 .49-.49.42.42 0 0 1 .24.07l9 5.2 8.94-5.2a.5.5 0 0 1 .74.42.48.48 0 0 1-.3.46l-9.18 5.31a.42.42 0 0 1-.24.07zM11.61 64a.5.5 0 0 1-.49-.5V52.84a.5.5 0 0 1 1 0V63.5a.5.5 0 0 1-.51.5zm37.93 0a.57.57 0 0 1-.18 0l-.71-.28C38.07 59.54 36.32 47.71 36.87 42l.13-1.69a.48.48 0 0 1 .47-.44h1.73a12.43 12.43 0 0 0 8.49-3.34l1.45-1.6a.48.48 0 0 1 .36-.16.52.52 0 0 1 .37.16l1.45 1.6a12.55 12.55 0 0 0 8.48 3.34h1.73a.47.47 0 0 1 .47.44l.21 1.69c.55 5.68-1.21 17.51-11.78 21.66l-.71.28a.57.57 0 0 1-.18.06zm.71-.77zM38 40.84l-.13 1.28C37.33 47.55 39 58.84 49 62.77l.53.21.53-.21c10-3.93 11.68-15.22 11.16-20.65l-.12-1.28h-1.3a13.56 13.56 0 0 1-9.18-3.65L49.54 36l-1.08 1.2a13.57 13.57 0 0 1-9.19 3.65z"/><path d="M49.54 60h-.18c-10-3.91-8.87-16.37-8.86-16.5a.5.5 0 0 1 .5-.5 12.13 12.13 0 0 0 8.2-3.3.52.52 0 0 1 .73 0A12.06 12.06 0 0 0 58.1 43a.5.5 0 0 1 .48.44c0 .13 1.09 12.59-8.86 16.5Zm-8.08-16c-.09 2.14 0 11.68 8.08 15 8.08-3.31 8.17-12.85 8.08-15a13.12 13.12 0 0 1-8.08-3.24A13.09 13.09 0 0 1 41.46 44Z"/></svg>